<svg width="22" height="22" viewBox="0 0 22 22" fill="none" xmlns="http://www.w3.org/2000/svg">
<path d="M4.01569 0H5.95569C6.37786 0 6.78161 0.177624 7.06474 0.490981L9.58271 3.26594C9.83233 3.54243 9.97138 3.90103 9.97138 4.27304V8.47738C9.97138 9.30517 9.30126 9.97545 8.47366 9.97545H1.49772C0.67012 9.97545 0 9.3035 0 8.47738V4.27304C0 3.90103 0.13905 3.54243 0.388669 3.26594L2.90664 0.490981C3.19144 0.177624 3.59352 0 4.01569 0Z" fill="#3737CC"/>
<path d="M21.9975 4.01666V5.95712C21.9975 6.3794 21.8199 6.78324 21.5066 7.06643L18.7323 9.58501C18.4559 9.83469 18.0974 9.97378 17.7255 9.97378H13.5221C12.6945 9.97378 12.0244 9.3035 12.0244 8.4757V1.49808C12.0244 0.670281 12.6945 0 13.5221 0H17.7255C18.0974 0 18.4559 0.139083 18.7323 0.388763L21.5066 2.90734C21.8199 3.19054 21.9975 3.59438 21.9975 4.01666Z" fill="#3737CC"/>
<path d="M17.983 21.9978H16.043C15.6209 21.9978 15.2171 21.8202 14.934 21.5068L12.416 18.7318C12.1664 18.4554 12.0273 18.0968 12.0273 17.7248V13.5204C12.0273 12.6926 12.6975 12.0223 13.5251 12.0223H20.5027C21.3303 12.0223 22.0004 12.6926 22.0004 13.5204V17.7248C22.0004 18.0968 21.8614 18.4554 21.6117 18.7318L19.0938 21.5068C18.8106 21.8202 18.4069 21.9978 17.9847 21.9978H17.983Z" fill="#3737CC"/>
<path d="M0 17.9817V16.0412C0 15.6189 0.177582 15.2151 0.490863 14.9319L3.26516 12.4133C3.54158 12.1636 3.9001 12.0245 4.27201 12.0245H8.47534C9.30294 12.0245 9.97306 12.6948 9.97306 13.5226V20.5019C9.97306 21.3297 9.30294 22 8.47534 22H4.27201C3.9001 22 3.54158 21.8609 3.26516 21.6112L0.490863 19.0926C0.177582 18.8061 0 18.4039 0 17.9817Z" fill="#3737CC"/>
</svg>
