<svg width="18" height="20" viewBox="0 0 18 20" fill="none" xmlns="http://www.w3.org/2000/svg">
<path d="M14.2191 7.39039C14.2191 6.00392 13.7028 4.67425 12.7837 3.69387C11.8646 2.71349 10.618 2.16272 9.3182 2.16272C8.01839 2.16272 6.77182 2.71349 5.85272 3.69387C4.93361 4.67425 4.41727 6.00392 4.41727 7.39039C4.41727 13.4894 1.9668 15.2319 1.9668 15.2319H16.6696C16.6696 15.2319 14.2191 13.4894 14.2191 7.39039Z" stroke="#313131" stroke-width="1.20352" stroke-linecap="round" stroke-linejoin="round"/>
<path d="M10.7315 17.6825C10.5879 17.9313 10.3818 18.1378 10.1337 18.2813C9.88574 18.4248 9.60459 18.5004 9.31838 18.5004C9.03216 18.5004 8.75101 18.4248 8.50302 18.2813C8.25504 18.1378 8.04887 17.9313 7.90527 17.6825" stroke="#313131" stroke-width="1.20352" stroke-linecap="round" stroke-linejoin="round"/>
<circle cx="4.72412" cy="4.84619" r="3.90283" fill="#D9D9D9"/>
<circle cx="4.83005" cy="5.02561" r="2.86325" fill="#50B36B"/>
</svg>
